# xmcd CD database file
#
# Track frame offsets:
#	150
#	20535
#	40002
#	55932
#	72213
#	89655
#	113388
#	132720
#	147057
#	169197
#	183750
#	204162
#	218878
#	241450
#	257758
#	272770
#
# Disc length: 3936 seconds
#
# Revision: 0
# Processed by: cddbd v1.5.2PL0 Copyright (c) Steve Scherf et al.
# Submitted via: CDex 1.51
#
DISCID=e40f5e10
DTITLE=Kenny G - Golden collection - 1
DYEAR=2006
DGENRE=Jazz
TTITLE0=Date In Heaven
TTITLE1=My Heart Will Go On
TTITLE2=There You'll Be
TTITLE3=Gone With The Wind
TTITLE4=All Out of Love
TTITLE5=I Believe I Can Fly
TTITLE6=(Everything I Do) I Do It for You
TTITLE7=Smoke Get In Your Eyes
TTITLE8=By Time This Night Is Over
TTITLE9=Because I Love You
TTITLE10=Uncle Al
TTITLE11=Cradlesong
TTITLE12=Bird
TTITLE13=Reflection
TTITLE14=Big Big World
TTITLE15=Forever In Love
EXTD=YEAR: 2006
EXTT0=
EXTT1=
EXTT2=
EXTT3=
EXTT4=
EXTT5=
EXTT6=
EXTT7=
EXTT8=
EXTT9=
EXTT10=
EXTT11=
EXTT12=
EXTT13=
EXTT14=
EXTT15=
PLAYORDER=
